<svg width="459" height="100" viewBox="0 0 459 100" fill="none" xmlns="http://www.w3.org/2000/svg">
<path d="M5.23119 80V19.8119H28.9773C33.5423 19.8119 37.4314 20.6838 40.6446 22.4275C43.8578 24.1516 46.3068 26.5517 47.9918 29.6277C49.6963 32.6842 50.5486 36.2108 50.5486 40.2077C50.5486 44.2045 49.6865 47.7312 47.9624 50.7876C46.2382 53.844 43.7402 56.2245 40.4683 57.9291C37.2159 59.6336 33.2778 60.4859 28.654 60.4859H13.5188V50.288H26.5968C29.0458 50.288 31.0639 49.8668 32.6509 49.0243C34.2574 48.1622 35.4526 46.9769 36.2363 45.4683C37.0396 43.94 37.4412 42.1865 37.4412 40.2077C37.4412 38.2092 37.0396 36.4655 36.2363 34.9765C35.4526 33.4679 34.2574 32.3021 32.6509 31.4792C31.0443 30.6368 29.0067 30.2155 26.538 30.2155H17.9565V80H5.23119ZM55.5038 80V19.8119H68.2291V44.6454H94.0618V19.8119H106.758V80H94.0618V55.1371H68.2291V80H55.5038ZM169.249 49.906C169.249 56.4694 168.005 62.0533 165.516 66.6575C163.048 71.2618 159.678 74.7786 155.407 77.2081C151.155 79.6179 146.375 80.8229 141.065 80.8229C135.716 80.8229 130.916 79.6082 126.664 77.1787C122.413 74.7492 119.053 71.2324 116.584 66.6281C114.115 62.0239 112.881 56.4498 112.881 49.906C112.881 43.3425 114.115 37.7586 116.584 33.1544C119.053 28.5502 122.413 25.0431 126.664 22.6332C130.916 20.2038 135.716 18.989 141.065 18.989C146.375 18.989 151.155 20.2038 155.407 22.6332C159.678 25.0431 163.048 28.5502 165.516 33.1544C168.005 37.7586 169.249 43.3425 169.249 49.906ZM156.347 49.906C156.347 45.6544 155.71 42.069 154.437 39.1497C153.183 36.2304 151.41 34.0165 149.117 32.5078C146.825 30.9992 144.141 30.2449 141.065 30.2449C137.989 30.2449 135.305 30.9992 133.012 32.5078C130.72 34.0165 128.937 36.2304 127.664 39.1497C126.41 42.069 125.783 45.6544 125.783 49.906C125.783 54.1575 126.41 57.7429 127.664 60.6622C128.937 63.5815 130.72 65.7955 133.012 67.3041C135.305 68.8127 137.989 69.567 141.065 69.567C144.141 69.567 146.825 68.8127 149.117 67.3041C151.41 65.7955 153.183 63.5815 154.437 60.6622C155.71 57.7429 156.347 54.1575 156.347 49.906ZM170.325 30.3037V19.8119H219.756V30.3037H201.33V80H188.751V30.3037H170.325ZM277.149 49.906C277.149 56.4694 275.904 62.0533 273.416 66.6575C270.947 71.2618 267.578 74.7786 263.306 77.2081C259.055 79.6179 254.274 80.8229 248.965 80.8229C243.616 80.8229 238.816 79.6082 234.564 77.1787C230.313 74.7492 226.953 71.2324 224.484 66.6281C222.015 62.0239 220.781 56.4498 220.781 49.906C220.781 43.3425 222.015 37.7586 224.484 33.1544C226.953 28.5502 230.313 25.0431 234.564 22.6332C238.816 20.2038 243.616 18.989 248.965 18.989C254.274 18.989 259.055 20.2038 263.306 22.6332C267.578 25.0431 270.947 28.5502 273.416 33.1544C275.904 37.7586 277.149 43.3425 277.149 49.906ZM264.247 49.906C264.247 45.6544 263.61 42.069 262.337 39.1497C261.083 36.2304 259.31 34.0165 257.017 32.5078C254.725 30.9992 252.041 30.2449 248.965 30.2449C245.889 30.2449 243.205 30.9992 240.912 32.5078C238.62 34.0165 236.837 36.2304 235.563 39.1497C234.31 42.069 233.683 45.6544 233.683 49.906C233.683 54.1575 234.31 57.7429 235.563 60.6622C236.837 63.5815 238.62 65.7955 240.912 67.3041C243.205 68.8127 245.889 69.567 248.965 69.567C252.041 69.567 254.725 68.8127 257.017 67.3041C259.31 65.7955 261.083 63.5815 262.337 60.6622C263.61 57.7429 264.247 54.1575 264.247 49.906ZM283.265 80V19.8119H307.363C311.791 19.8119 315.484 20.4683 318.443 21.781C321.401 23.0937 323.625 24.9158 325.114 27.2473C326.603 29.5592 327.348 32.2237 327.348 35.241C327.348 37.5921 326.877 39.6591 325.937 41.442C324.997 43.2053 323.703 44.6552 322.058 45.7915C320.432 46.9083 318.57 47.7018 316.474 48.172V48.7598C318.766 48.8578 320.912 49.5043 322.91 50.6994C324.928 51.8946 326.564 53.5697 327.818 55.7249C329.072 57.8605 329.699 60.4075 329.699 63.366C329.699 66.5596 328.905 69.4103 327.318 71.9181C325.751 74.4063 323.429 76.3754 320.353 77.8252C317.277 79.2751 313.486 80 308.98 80H283.265ZM295.99 69.5964H306.364C309.91 69.5964 312.497 68.9205 314.123 67.5686C315.749 66.1971 316.562 64.375 316.562 62.1023C316.562 60.4369 316.16 58.9675 315.357 57.694C314.554 56.4205 313.408 55.4212 311.919 54.6963C310.449 53.9714 308.696 53.6089 306.658 53.6089H295.99V69.5964ZM295.99 44.998H305.424C307.167 44.998 308.715 44.6944 310.067 44.087C311.439 43.46 312.516 42.5784 313.3 41.442C314.103 40.3056 314.505 38.944 314.505 37.357C314.505 35.1822 313.731 33.4287 312.183 32.0964C310.655 30.7641 308.48 30.098 305.659 30.098H295.99V44.998ZM331.142 19.8119H345.396L359.12 45.7328H359.708L373.432 19.8119H387.686L365.733 58.7226V80H353.095V58.7226L331.142 19.8119Z" fill="black"/>
<rect x="417.586" y="29.3103" width="41.3793" height="41.3793" rx="10.3448" fill="black"/>
<circle cx="438.276" cy="49.9999" r="6.89655" fill="white"/>
</svg>
