<svg width="59" height="48" viewBox="0 0 59 48" fill="none" xmlns="http://www.w3.org/2000/svg">
<path d="M10.6667 21.3333H48C53.8667 21.3333 58.6667 16.5333 58.6667 10.6667C58.6667 4.8 53.8667 0 48 0H10.6667C4.8 0 0 4.8 0 10.6667C0 16.5333 4.8 21.3333 10.6667 21.3333ZM10.6667 5.33333C13.6 5.33333 16 7.73333 16 10.6667C16 13.6 13.6 16 10.6667 16C7.73333 16 5.33333 13.6 5.33333 10.6667C5.33333 7.73333 7.73333 5.33333 10.6667 5.33333Z" fill="black"/>
<path d="M48 26.6667H10.6667C4.8 26.6667 0 31.4667 0 37.3334C0 43.2 4.8 48 10.6667 48H48C53.8667 48 58.6667 43.2 58.6667 37.3334C58.6667 31.4667 53.8667 26.6667 48 26.6667ZM48 42.6667C45.0667 42.6667 42.6667 40.2667 42.6667 37.3334C42.6667 34.4 45.0667 32 48 32C50.9333 32 53.3333 34.4 53.3333 37.3334C53.3333 40.2667 50.9333 42.6667 48 42.6667Z" fill="black"/>
</svg>
