<svg width="64" height="64" viewBox="0 0 64 64" fill="none" xmlns="http://www.w3.org/2000/svg">
<g clip-path="url(#clip0_108_84)">
<path d="M64 0H0V64H64V0Z" fill="white" fill-opacity="0.01"/>
<path d="M13.8207 55.5096C8.59886 50.6416 5.3335 43.7021 5.3335 36C5.3335 21.2724 17.2726 9.33331 32.0002 9.33331C46.7278 9.33331 58.6668 21.2724 58.6668 36C58.6668 43.7021 55.4015 50.6416 50.1796 55.5096" stroke="black" stroke-width="5.33333" stroke-linecap="round" stroke-linejoin="round"/>
<path d="M20.1832 48.6812C16.789 45.5171 14.6665 41.0064 14.6665 36C14.6665 26.4271 22.4269 18.6667 31.9998 18.6667C41.5728 18.6667 49.3332 26.4271 49.3332 36C49.3332 41.0064 47.2106 45.5171 43.8165 48.6812" stroke="black" stroke-width="5.33333" stroke-linecap="round" stroke-linejoin="round"/>
<path d="M26.5461 41.8529C24.9796 40.3925 24 38.3107 24 36C24 31.5817 27.5817 28 32 28C36.4183 28 40 31.5817 40 36C40 38.3107 39.0204 40.3925 37.4539 41.8529" stroke="black" stroke-width="5.33333" stroke-linecap="round" stroke-linejoin="round"/>
</g>
<defs>
<clipPath id="clip0_108_84">
<rect width="64" height="64" fill="white"/>
</clipPath>
</defs>
</svg>
