<svg width="53" height="44" viewBox="0 0 53 44" fill="none" xmlns="http://www.w3.org/2000/svg">
<path d="M51.0664 22.804L41.7864 17.004L51.0664 11.204C51.3559 11.0246 51.5947 10.7744 51.7603 10.4769C51.9259 10.1794 52.0129 9.8445 52.0129 9.504C52.0129 9.16351 51.9259 8.82865 51.7603 8.53116C51.5947 8.23366 51.3559 7.98337 51.0664 7.804L39.0664 0.304005C38.7486 0.105339 38.3813 0 38.0064 0C37.6316 0 37.2643 0.105339 36.9464 0.304005L26.0064 7.144L15.0664 0.304005C14.7486 0.105339 14.3813 0 14.0064 0C13.6316 0 13.2643 0.105339 12.9464 0.304005L0.946434 7.804C0.657014 7.98337 0.418179 8.23366 0.252554 8.53116C0.0869297 8.82865 0 9.16351 0 9.504C0 9.8445 0.0869297 10.1794 0.252554 10.4769C0.418179 10.7744 0.657014 11.0246 0.946434 11.204L10.2264 17.004L0.946434 22.804C0.657014 22.9834 0.418179 23.2337 0.252554 23.5312C0.0869297 23.8287 0 24.1635 0 24.504C0 24.8445 0.0869297 25.1794 0.252554 25.4769C0.418179 25.7743 0.657014 26.0246 0.946434 26.204L12.9464 33.704C13.2643 33.9027 13.6316 34.008 14.0064 34.008C14.3813 34.008 14.7486 33.9027 15.0664 33.704L26.0064 26.864L36.9464 33.704C37.2643 33.9027 37.6316 34.008 38.0064 34.008C38.3813 34.008 38.7486 33.9027 39.0664 33.704L51.0664 26.204C51.3559 26.0246 51.5947 25.7743 51.7603 25.4769C51.9259 25.1794 52.0129 24.8445 52.0129 24.504C52.0129 24.1635 51.9259 23.8287 51.7603 23.5312C51.5947 23.2337 51.3559 22.9834 51.0664 22.804ZM26.0064 22.144L17.7864 17.004L26.0064 11.864L34.2264 17.004L26.0064 22.144ZM38.0064 4.36401L46.2264 9.504L38.0064 14.644L29.7864 9.504L38.0064 4.36401ZM14.0064 4.36401L22.2264 9.504L14.0064 14.644L5.78643 9.504L14.0064 4.36401ZM14.0064 29.644L5.78643 24.504L14.0064 19.364L22.2264 24.504L14.0064 29.644ZM38.0064 29.644L29.7864 24.504L38.0064 19.364L46.2264 24.504L38.0064 29.644Z" fill="black"/>
<path d="M32.9863 35.484L26.0063 39.664L19.0263 35.484C18.5751 35.2801 18.0644 35.2508 17.5928 35.4018C17.1213 35.5527 16.7225 35.8733 16.4736 36.3013C16.2248 36.7293 16.1435 37.2345 16.2456 37.7189C16.3477 38.2034 16.6259 38.6328 17.0263 38.924L25.0263 43.724C25.3304 43.8996 25.6752 43.992 26.0263 43.992C26.3774 43.992 26.7223 43.8996 27.0263 43.724L35.0263 38.924C35.2813 38.8088 35.5093 38.6413 35.6955 38.4324C35.8818 38.2235 36.0221 37.9779 36.1074 37.7113C36.1927 37.4448 36.2212 37.1634 36.1909 36.8851C36.1606 36.6069 36.0723 36.3382 35.9317 36.0963C35.791 35.8543 35.6011 35.6446 35.3743 35.4807C35.1476 35.3167 34.8889 35.2022 34.615 35.1445C34.3412 35.0868 34.0583 35.0872 33.7847 35.1457C33.511 35.2042 33.2526 35.3194 33.0263 35.484H32.9863Z" fill="black"/>
</svg>
