<svg width="395" height="86" viewBox="0 0 395 86" fill="none" xmlns="http://www.w3.org/2000/svg">
<path d="M4.49882 69V17.2382H24.9205C28.8464 17.2382 32.191 17.988 34.9544 19.4877C37.7177 20.9704 39.8239 23.0345 41.2729 25.6799C42.7388 28.3084 43.4718 31.3413 43.4718 34.7786C43.4718 38.2159 42.7304 41.2488 41.2477 43.8773C39.7649 46.5059 37.6166 48.5531 34.8027 50.019C32.0057 51.4849 28.6189 52.2179 24.6424 52.2179H11.6262V43.4477H22.8732C24.9794 43.4477 26.7149 43.0854 28.0797 42.3609C29.4614 41.6195 30.4892 40.6001 31.1632 39.3027C31.854 37.9884 32.1995 36.4804 32.1995 34.7786C32.1995 33.0599 31.854 31.5603 31.1632 30.2798C30.4892 28.9824 29.4614 27.9798 28.0797 27.2721C26.6981 26.5476 24.9457 26.1853 22.8227 26.1853H15.4426V69H4.49882ZM47.7333 69V17.2382H58.6771V38.595H80.8932V17.2382H91.8117V69H80.8932V47.6179H58.6771V69H47.7333ZM145.554 43.1191C145.554 48.7637 144.484 53.5658 142.344 57.5255C140.221 61.4851 137.323 64.5096 133.65 66.5989C129.993 68.6714 125.882 69.7077 121.316 69.7077C116.716 69.7077 112.588 68.663 108.931 66.5737C105.275 64.4843 102.385 61.4598 100.262 57.5002C98.1393 53.5406 97.0778 48.7469 97.0778 43.1191C97.0778 37.4745 98.1393 32.6724 100.262 28.7128C102.385 24.7531 105.275 21.7371 108.931 19.6646C112.588 17.5752 116.716 16.5306 121.316 16.5306C125.882 16.5306 129.993 17.5752 133.65 19.6646C137.323 21.7371 140.221 24.7531 142.344 28.7128C144.484 32.6724 145.554 37.4745 145.554 43.1191ZM134.458 43.1191C134.458 39.4628 133.911 36.3793 132.816 33.8687C131.737 31.3581 130.212 29.4542 128.241 28.1567C126.27 26.8593 123.961 26.2106 121.316 26.2106C118.67 26.2106 116.362 26.8593 114.391 28.1567C112.419 29.4542 110.886 31.3581 109.791 33.8687C108.712 36.3793 108.173 39.4628 108.173 43.1191C108.173 46.7755 108.712 49.8589 109.791 52.3695C110.886 54.8801 112.419 56.7841 114.391 58.0815C116.362 59.3789 118.67 60.0276 121.316 60.0276C123.961 60.0276 126.27 59.3789 128.241 58.0815C130.212 56.7841 131.737 54.8801 132.816 52.3695C133.911 49.8589 134.458 46.7755 134.458 43.1191ZM146.479 26.2612V17.2382H188.991V26.2612H173.144V69H162.326V26.2612H146.479ZM238.348 43.1191C238.348 48.7637 237.278 53.5658 235.138 57.5255C233.015 61.4851 230.117 64.5096 226.444 66.5989C222.787 68.6714 218.676 69.7077 214.11 69.7077C209.51 69.7077 205.382 68.663 201.725 66.5737C198.069 64.4843 195.179 61.4598 193.056 57.5002C190.933 53.5406 189.872 48.7469 189.872 43.1191C189.872 37.4745 190.933 32.6724 193.056 28.7128C195.179 24.7531 198.069 21.7371 201.725 19.6646C205.382 17.5752 209.51 16.5306 214.11 16.5306C218.676 16.5306 222.787 17.5752 226.444 19.6646C230.117 21.7371 233.015 24.7531 235.138 28.7128C237.278 32.6724 238.348 37.4745 238.348 43.1191ZM227.252 43.1191C227.252 39.4628 226.705 36.3793 225.609 33.8687C224.531 31.3581 223.006 29.4542 221.035 28.1567C219.063 26.8593 216.755 26.2106 214.11 26.2106C211.464 26.2106 209.156 26.8593 207.185 28.1567C205.213 29.4542 203.68 31.3581 202.585 33.8687C201.506 36.3793 200.967 39.4628 200.967 43.1191C200.967 46.7755 201.506 49.8589 202.585 52.3695C203.68 54.8801 205.213 56.7841 207.185 58.0815C209.156 59.3789 211.464 60.0276 214.11 60.0276C216.755 60.0276 219.063 59.3789 221.035 58.0815C223.006 56.7841 224.531 54.8801 225.609 52.3695C226.705 49.8589 227.252 46.7755 227.252 43.1191ZM243.608 69V17.2382H264.332C268.14 17.2382 271.317 17.8027 273.861 18.9316C276.405 20.0605 278.318 21.6275 279.598 23.6326C280.879 25.6209 281.519 27.9124 281.519 30.5072C281.519 32.5292 281.115 34.3068 280.306 35.8401C279.497 37.3566 278.385 38.6034 276.97 39.5807C275.571 40.5411 273.97 41.2235 272.168 41.6279V42.1334C274.139 42.2177 275.984 42.7737 277.703 43.8015C279.438 44.8293 280.845 46.27 281.923 48.1234C283.002 49.96 283.541 52.1505 283.541 54.6947C283.541 57.4412 282.859 59.8928 281.494 62.0496C280.146 64.1895 278.149 65.8828 275.504 67.1297C272.858 68.3766 269.598 69 265.723 69H243.608ZM254.551 60.0529H263.473C266.523 60.0529 268.747 59.4716 270.146 58.309C271.544 57.1295 272.243 55.5625 272.243 53.608C272.243 52.1757 271.898 50.912 271.207 49.8168C270.516 48.7216 269.531 47.8623 268.25 47.2388C266.986 46.6154 265.478 46.3037 263.726 46.3037H254.551V60.0529ZM254.551 38.8983H262.664C264.164 38.8983 265.495 38.6371 266.658 38.1148C267.837 37.5756 268.764 36.8174 269.438 35.8401C270.129 34.8629 270.474 33.6918 270.474 32.327C270.474 30.4567 269.809 28.9487 268.477 27.8029C267.163 26.6571 265.293 26.0842 262.867 26.0842H254.551V38.8983ZM284.782 17.2382H297.04L308.843 39.5302H309.349L321.152 17.2382H333.41L314.53 50.7014V69H303.662V50.7014L284.782 17.2382Z" fill="white"/>
<rect x="358.724" y="25.2069" width="35.5862" height="35.5862" rx="8.89655" fill="white"/>
<circle cx="376.517" cy="43" r="5.93103" fill="black"/>
</svg>
